<?xml version="1.0" standalone="no"?>
<!DOCTYPE svg PUBLIC "-//W3C//DTD SVG 1.1//EN" "http://www.w3.org/Graphics/SVG/1.1/DTD/svg11.dtd" >
<svg>
<metadata>
Created by FontForge 20120731 at Sun Oct 28 20:49:48 2018
 By www
</metadata>
<defs>
<font id="bp-icon-font" horiz-adv-x="1000" >
  <font-face 
    font-family="bp-icon-font"
    font-weight="400"
    font-stretch="normal"
    units-per-em="1000"
    panose-1="2 0 5 3 0 0 0 0 0 0"
    ascent="1000"
    descent="0"
    bbox="-4.84314 -1 1025 1004.84"
    underline-thickness="0"
    underline-position="10"
    unicode-range="U+E001-E018"
  />
<missing-glyph horiz-adv-x="0" 
 />
    <glyph glyph-name=".notdef" horiz-adv-x="0" 
 />
    <glyph glyph-name="add" unicode="&#xe001;" 
d="M573 573v357q0 30 -21.5 51.5t-51.5 21.5t-51.5 -21.5t-21.5 -51.5v-357h-357q-30 0 -51 -21.5t-21 -51.5t21 -51.5t51 -21.5h358v-357q0 -30 21 -50.5t50.5 -20t51 21t21.5 49.5v358h358q30 0 50.5 21t20 50.5t-21 51t-49.5 22.5h-357z" />
    <glyph glyph-name="btn-triangle-left" unicode="&#xe002;" 
d="M805 968q0 13 -9 22t-21.5 10t-22.5 -7l-547 -485q-11 -10 -11 -25.5t11 -24.5l545 -451q10 -8 22.5 -7t21.5 10t9 22zM743 103l-468 385l468 407v-792z" />
    <glyph glyph-name="btn-triangle-right" unicode="&#xe003;" 
d="M728 485l-468 -385v795zM195 968v-935q0 -14 9 -23t21.5 -10t22.5 8l547 452q11 9 11 24t-11 26l-545 483q-10 8 -23 7t-22.5 -10t-9.5 -22z" />
    <glyph glyph-name="close" unicode="&#xe004;" 
d="M335 765l-212 215q-21 21 -50.5 21t-51.5 -21t-22 -50.5t21 -51.5l213 -213q20 -21 50 -21t52.5 21t22.5 50t-23 50zM978 123l-215 212q-21 21 -50.5 21t-50 -21t-20.5 -51.5t21 -51.5l215 -212q20 -21 49.5 -21t51 21t21.5 50.5t-22 52.5zM878 980l-858 -860
q-21 -21 -21 -50t21 -50t50 -21t50 21l860 858q21 20 21 49.5t-20.5 51t-50.5 22t-52 -20.5z" />
    <glyph glyph-name="danmu-a" unicode="&#xe005;" 
d="M822 929q35 0 68 -13.5t58.5 -38.5t38.5 -58t13 -69v-500q0 -36 -13.5 -69t-38.5 -58t-58 -38.5t-68 -13.5h-643q-36 0 -69 13.5t-58 38.5t-38.5 58t-13.5 69v500q0 36 13 69t38.5 58t58.5 38.5t69 13.5h643zM929 250v500q0 21 -8 41t-23 35.5t-35 23.5t-42 8h-642
q-22 0 -42 -8t-35 -23.5t-23 -35.5t-7 -41v-500q-1 -21 7 -41t23 -35.5t35 -23.5t41 -7h644q21 -1 41 7t35 23.5t23 35.5t8 41zM197 572v71h71v-71h-71zM268 357v72h72v-72h-72zM411 357v72h393v-72h-393zM339 572v71h429v-71h-429z" />
    <glyph glyph-name="emoji-btn" unicode="&#xe006;" 
d="M100 621v-321q0 -50 24.5 -92t66.5 -66.5t92 -24.5h434q50 0 92 24.5t66.5 66.5t24.5 92v321q0 50 -24.5 92t-66.5 66.5t-92 24.5h-434q-50 0 -92 -24.5t-66.5 -66.5t-24.5 -92zM663 530l106 80q8 7 9.5 17t-5 18.5t-16.5 10t-19 -5.5l-133 -101q-8 -6 -9.5 -16.5
t4.5 -18.5q3 -4 7 -6l130 -91q9 -6 19 -4t16 10t4 18.5t-10 16.5zM337 530l-103 -72q-8 -6 -10 -16t4 -18.5t16 -10.5t18 4l131 90q4 3 7 6q6 9 4.5 19t-9.5 16l-133 102q-9 7 -19 5.5t-16.5 -10t-5 -18.5t9.5 -17zM690 854h27q63 0 116.5 -31.5t85 -85t31.5 -116.5v-321
q0 -63 -31.5 -116.5t-85 -85t-116.5 -31.5h-434q-63 0 -116.5 31.5t-85 85t-31.5 116.5v321q0 63 31.5 116.5t85 85t116.5 31.5h27l-44 84q-6 10 -2.5 22t14 17.5t22.5 2t18 -14.5l57 -111h250l57 110q6 11 17.5 14.5t22.5 -2t14.5 -17.5t-2.5 -22zM500 229q48 0 86.5 28.5
t52.5 73.5q5 16 -5 29.5t-27 14.5h-214q-18 0 -27.5 -14t-4.5 -30q14 -46 52.5 -74t86.5 -28z" />
    <glyph glyph-name="gantan-01" unicode="&#xe007;" 
d="M500 322q-29 0 -50 -21t-21 -50t20.5 -50t50 -21.5t50.5 20.5t21.5 50.5t-20.5 50.5t-51 21zM893 608q-49 89 -110 164q-68 86 -137 134q-77 56 -146 56.5t-146 -53.5q-68 -48 -137 -133q-61 -75 -110 -164q-56 -101 -85 -196q-47 -158 5 -241q45 -71 190 -108
q123 -31 285 -31h10q158 2 277 33q144 37 186 108q49 81 2 237q-28 94 -84 194zM902 221q-15 -25 -66 -46q-53 -23 -133 -37q-88 -15 -192 -15q-101 0 -188.5 12.5t-146.5 35t-77 52.5q-27 44 -4 139.5t87 208.5q48 87 107 158q58 69 114 109.5t97 40.5v0q41 0 97 -41
t113 -111q60 -72 108 -159q62 -113 85.5 -209.5t-1.5 -137.5zM500 750q-30 0 -50.5 -21t-20.5 -50v-214q0 -30 20.5 -50.5t50.5 -20.5t50.5 20.5t20.5 50.5v213q1 30 -20 51t-51 21z" />
    <glyph glyph-name="good" unicode="&#xe008;" 
d="M318 139q52 -14 106 -23q6 -1 12 -4q73 -21 148 -21h156q18 -1 35 6t29 21q6 13 10 26l3 6q0 9 -3 18q-5 15 0.5 30t19.5 23q10 6 15 17q7 15 11 32q10 23 1 47q-5 14 0 28.5t17.5 23t20.5 50.5q2 8 0 16.5t-8 14.5q-8 11 -8 25t8 25q11 16 14.5 24t3.5 16v19
q0 19 -12 34t-30 19q-39 5 -78 6l-155 7q-18 0 -30.5 13.5t-12.5 31.5q0 23 3 45.5t3 45.5q0 36 -16 72q-15 33 -38 55.5t-43 22.5q-16 -1 -27.5 -12t-11.5 -27q3 -77 -35 -144.5t-106 -103.5h-2v-485zM227 93v530h-13h-84q-16 -1 -27.5 -12.5t-11.5 -26.5v-454
q0 -16 11.5 -27.5t27.5 -11.5h84q7 0 13 2zM370 870q1 35 18.5 65t47 47.5t64.5 17.5q47 0 92 -35q43 -34 69.5 -90t26.5 -115q0 -24 -2 -48l106 -4q47 -1 93 -8q50 -11 82 -50.5t33 -91.5v-19q1 -36 -19 -67q15 -34 5 -71q-6 -46 -33 -84q8 -40 -7 -78q-6 -22 -15.5 -41
t-23.5 -34q2 -26 -8 -50q-6 -20 -16 -39q-23 -36 -61 -56t-81 -19h-156q-94 0 -182 27q-61 12 -90 19q-18 -22 -44.5 -34t-55.5 -12h-83q-35 0 -65 17.5t-47.5 47.5t-17.5 65v455q0 35 17.5 64.5t47.5 47t65 17.5h84q32 1 61 -11l8 3q43 26 66.5 70t20.5 94z" />
    <glyph glyph-name="group-dynamic" unicode="&#xe009;" 
d="M571 500l390 390q14 14 14 35t-14.5 35.5t-35.5 14.5t-35 -14v0l-390 -390l-390 390q-14 14 -35 14t-35.5 -14.5t-14.5 -35.5t14 -35l390 -390l-389 -390q-15 -14 -15 -35t14.5 -35.5t35.5 -14.5t35 14l390 390l390 -389q14 -15 35 -15t35.5 14.5t14.5 35.5t-14 35z" />
    <glyph glyph-name="information_warning" unicode="&#xe00a;" 
d="M500 1000q135 0 252 -69q113 -66 179 -179q69 -117 69 -252t-69 -252q-66 -113 -179 -179q-117 -69 -252 -69t-252 69q-113 66 -179 179q-69 117 -69 252t69 252q66 113 179 179q117 69 252 69zM500 232q21 0 37.5 16t16.5 37.5t-16.5 37.5t-37.5 16t-37.5 -16
t-16.5 -37.5t16.5 -37.5t37.5 -16zM454 439q0 -28 11.5 -46t34.5 -18t34.5 18t11.5 46l18 265q0 26 -18 45t-42.5 19t-44.5 -19t-20 -45z" />
    <glyph glyph-name="jinz-01" unicode="&#xe00b;" 
d="M500 1000q-136 0 -252 -68q-113 -67 -180 -180q-68 -116 -68 -252t68 -252q67 -113 180 -180q116 -68 252 -68t252 68q113 67 180 180q68 116 68 252t-68 252q-67 113 -180 180q-116 68 -252 68zM500 914q71 0 138.5 -23.5t122.5 -68.5l-582 -583q-50 62 -73.5 136.5
t-18.5 153t39 150t91.5 124.5t130.5 82t152 29zM500 86q-71 0 -138.5 23.5t-122.5 69.5l583 582q49 -62 72.5 -136.5t18.5 -153t-39 -150t-91.5 -124.5t-130.5 -82t-152 -29z" />
    <glyph glyph-name="left-r-dynamic" unicode="&#xe00c;" 
d="M756 753q68 -70 92 -163q23 -90 0 -180q-24 -93 -92 -162q-49 -51 -113.5 -78t-135 -27t-135 27t-114.5 78q-20 21 -49.5 21t-50 -21t-20.5 -50.5t20 -49.5q69 -71 160 -109t189 -38t188.5 38t159.5 109q95 96 128 226q33 127 0 254q-33 130 -128 227q-89 91 -211 127
q-119 34 -240 9q-124 -27 -220 -112l-44 44q-21 21 -41 15.5t-27 -33.5l-69 -260q-8 -29 6.5 -44t43.5 -6l256 70q28 7 33.5 27.5t-15.5 41.5l-42 43q68 57 156 74q85 17 168 -9q85 -25 147 -90v1z" />
    <glyph glyph-name="link" unicode="&#xe00d;" horiz-adv-x="866" 
d="M406 506q12 -11 12 -27.5t-11.5 -28.5t-28 -12t-28.5 12q-40 39 -54 92.5t0 106.5t54 93l141 142q40 39 93 52.5t106 -0.5t92.5 -53.5t53.5 -92.5t0.5 -106t-52.5 -93l-124 -123q-11 -12 -27.5 -12t-28.5 12t-12 28.5t12 27.5l123 124q24 24 33 56.5t0 65.5t-33 57
t-57 33t-65.5 0t-56.5 -33l-142 -141q-24 -25 -32.5 -57.5t0 -65t32.5 -57.5zM460 494q-11 11 -11 27.5t11.5 28.5t28 12t28.5 -12q40 -39 53.5 -92.5t0 -106.5t-53.5 -93l-142 -142q-39 -39 -92.5 -52.5t-106.5 0.5t-92.5 53.5t-53.5 92.5t0 106t53 93l123 123
q8 8 18.5 10.5t21 0t18 -10t10 -18t0 -21t-10.5 -17.5l-123 -124q-25 -24 -33.5 -56.5t0.5 -65t33 -57t56.5 -33t65 0t57.5 32.5l141 141q25 25 33.5 57.5t0 65t-33.5 57.5z" />
    <glyph glyph-name="lottery-btn" unicode="&#xe00e;" horiz-adv-x="1062" 
d="M913 506h-763q-31 0 -56.5 15t-40.5 41t-15 57t15 56.5t40.5 40.5t56.5 15h763q30 0 56 -15t41 -40.5t15 -56.5t-15 -57t-41 -41t-56 -15zM150 669q-19 0 -34.5 -15.5t-15.5 -34.5t15.5 -34.5t34.5 -15.5h763q18 0 34 15.5t16 34.5t-16 34.5t-34 15.5h-763zM844 19h-625
q-25 0 -46.5 13t-34.5 34.5t-13 46.5v443h813v-450q0 -21 -13.5 -41.5t-35 -33t-45.5 -12.5zM188 494v-388q0 -9 7.5 -17t17.5 -8h631q9 0 17 8t8 17v388h-681zM506 738h63v-719h-63v719zM556 675h-162q-41 0 -77 21t-57.5 57t-21.5 78.5t21.5 78.5t57.5 57t76.5 21
t76.5 -21t58 -57t22 -79v-156h6zM394 925q-25 0 -46.5 -13t-34.5 -34.5t-13 -46t13 -46.5t34.5 -34.5t46.5 -12.5h94v93q4 41 -23.5 67.5t-70.5 26.5zM663 675h-157v156q0 43 21 79t56.5 57t79 21t79 -21t56.5 -57t21 -79t-21 -78.5t-56.5 -56.5t-78.5 -21zM569 738h94
q24 0 45.5 12.5t34.5 34.5t13 46.5t-13 46t-34.5 34.5t-45.5 13q-39 0 -66.5 -26.5t-27.5 -67.5v-93z" />
    <glyph glyph-name="more-1" unicode="&#xe00f;" 
d="M500 778q-30 0 -55.5 15t-40.5 40.5t-15 55.5t15 55.5t40.5 40.5t55.5 15t55.5 -15t40.5 -40.5t15 -55.5t-15 -55.5t-40.5 -40.5t-55.5 -15zM500 389q-30 0 -55.5 15t-40.5 40.5t-15 55.5t15 55.5t40.5 40.5t55.5 15t55.5 -15t40.5 -40.5t15 -55.5t-15 -55.5t-40.5 -40.5
t-55.5 -15zM500 0q-30 0 -55.5 15t-40.5 40.5t-15 55.5t15 55.5t40.5 40.5t55.5 15t55.5 -15t40.5 -40.5t15 -55.5t-15 -55.5t-40.5 -40.5t-55.5 -15z" />
    <glyph glyph-name="pic-btn" unicode="&#xe010;" 
d="M296 604q29 0 50 21t21 50t-21 50t-50.5 21t-50 -21t-20.5 -50t20.5 -50t50.5 -21zM890 380v391q0 19 -7.5 37t-21.5 32t-32 21.5t-37 7.5h-584q-40 0 -69 -29t-29 -69v-500q26 34 63 56t79 27q53 7 105 -7t94 -48q90 147 226 163q60 7 116.5 -15t96.5 -67zM890 303
q-46 63 -97.5 89t-111.5 19q-122 -14 -203 -163q-6 -11 -18 -13t-21 7q-36 35 -83.5 51.5t-97.5 10.5q-47 -8 -84.5 -38.5t-55.5 -75.5q12 -27 36.5 -43t53.5 -16h584q40 0 68.5 29t28.5 69zM56 771q0 41 20.5 76t55.5 55.5t76 20.5h584q30 0 58 -11.5t49.5 -33t33 -49.5
t11.5 -58v-542q0 -41 -20.5 -76t-55.5 -55.5t-76 -20.5h-584q-30 0 -58 11.5t-49.5 33t-33 49.5t-11.5 58v542z" />
    <glyph glyph-name="play-a" unicode="&#xe011;" 
d="M823 928h-645q-48 1 -89 -22.5t-65 -64.5t-24 -88v-503q0 -48 23.5 -89t63.5 -64.5t88 -23.5h645q48 0 89 23t65 63.5t24 88.5v502q0 48 -23.5 89t-64 65.5t-88.5 25.5q2 0 1.5 -0.5t-0.5 -1.5zM930 250q0 -43 -29.5 -74.5t-72.5 -32.5h-650q-44 0 -75 29.5t-33 72.5v505
q0 43 30 74.5t75 33.5h648q43 0 74 -30t33 -73v-505zM693 533l-285 125q-14 5 -27 0t-21 -18q-2 -5 -2 -15v-250q0 -15 10 -25t25 -10q10 0 15 3l284 125q14 5 19 18t-1 27q-2 6 -7 11q-3 4 -10 8v1z" />
    <glyph glyph-name="right-r-dynamic" unicode="&#xe012;" 
d="M244 753q-68 -70 -92 -163q-23 -90 0 -180q24 -93 92 -163q49 -50 113.5 -77t135 -27t135 27t113.5 78q21 21 50.5 21t50 -21t20.5 -50.5t-20 -49.5q-69 -71 -160 -109t-189 -38t-188.5 38t-159.5 108q-95 97 -128 227q-33 127 0 254q33 130 128 227q89 91 211 127
q119 34 240 9q124 -27 220 -112l44 44q21 21 41 15.5t27 -33.5l70 -260q7 -29 -7.5 -44t-42.5 -6l-257 70q-28 7 -33.5 27.5t15.5 41.5l42 43q-68 57 -156 74q-85 17 -168 -9q-85 -25 -147 -89z" />
    <glyph glyph-name="routine_processing" unicode="&#xe013;" 
d="M500 0q-101 0 -193 40q-90 38 -159.5 107.5t-107.5 159.5q-40 92 -40 193t40 193q38 90 107.5 159.5t159.5 107.5q92 40 193 40t193 -40q90 -38 159.5 -107.5t107.5 -159.5q40 -92 40 -193t-40 -193q-38 -90 -107.5 -159.5t-159.5 -107.5q-92 -40 -193 -40zM773 527v0
q7 -7 10 -11q4 -7 4 -16q0 -3 -3.5 -10t-3.5 -10v0l-233 -200q-10 -10 -23.5 -10t-23.5 10t-10 23.5t10 23.5l160 140h-413q-12 0 -23 9.5t-11 23.5t11 23.5t23 9.5h413l-167 147q-10 10 -10 23.5t10 23.5q10 5 23.5 5t23.5 -5z" />
    <glyph glyph-name="sq-dynamic" unicode="&#xe014;" 
d="M500 125q102 0 189 51q85 50 135 135q51 87 51 189t-51 189q-50 85 -135 135q-87 51 -189 51t-189 -51q-85 -50 -135 -135q-51 -87 -51 -189t51 -189q50 -85 135 -135q87 -51 189 -51zM500 0q-136 0 -252 68q-113 67 -180 180q-68 116 -68 252t68 252q67 113 180 180
q116 68 252 68t252 -68q113 -67 180 -180q68 -116 68 -252t-68 -252q-67 -113 -180 -180q-116 -68 -252 -68zM417 583h167q34 0 58.5 -24.5t24.5 -58.5v0q0 -34 -24.5 -58.5t-59.5 -24.5h-166q-35 0 -59.5 24t-24.5 59v0q0 35 24.5 59t59.5 24z" />
    <glyph glyph-name="ss-dynamic" unicode="&#xe015;" 
d="M906 0q-39 0 -66 28l-165 165q-93 -60 -204 -69q-107 -8 -206 34q-102 43 -171.5 129t-90.5 195q-20 106 11 209q32 106 110.5 184.5t184.5 110.5q103 31 209 11q109 -21 195 -90.5t129 -171.5q42 -99 34 -206q-9 -111 -69 -204l165 -166q20 -20 25 -47.5t-5.5 -53.5
t-34 -42t-51.5 -16zM890 78zM438 883q-68 1 -129.5 -26t-107 -76t-68 -113t-17 -131t37 -126.5t84.5 -101.5t118 -58.5t131.5 -6t123.5 47.5l59 37l39 60q47 74 50.5 162t-39 165.5t-118.5 122.5t-164 44z" />
    <glyph glyph-name="top" unicode="&#xe016;" 
d="M107 964h786q15 0 25.5 -10.5t10.5 -25t-10.5 -25t-25.5 -10.5h-786q-15 0 -25.5 10.5t-10.5 25t10.5 25t25.5 10.5zM536 714v-678q0 -15 -10.5 -25.5t-25.5 -10.5t-25.5 10.5t-10.5 25.5v678q0 15 10.5 25.5t25.5 10.5t25.5 -10.5t10.5 -25.5zM503 683l-435 -436
q-10 -10 -25 -10t-25.5 10.5t-10.5 25.5t11 25l454 455q13 12 31 10q18 2 31 -10l455 -455q10 -10 10 -25t-10.5 -25.5t-25 -10.5t-25.5 10z" />
    <glyph glyph-name="topic" unicode="&#xe017;" 
d="M593 309h-270l-50 -236q-2 -8 -9 -13t-16 -3l-20 4q-9 2 -13.5 9.5t-2.5 15.5l47 223h-196q-9 0 -15 6.5t-6 14.5v21q0 9 6 15t15 6h210l57 271h-184q-9 0 -15 6t-6 15v20q0 9 6 15t15 6h197l51 237q2 8 9 13t15 3l21 -4q8 -2 13 -9.5t3 -15.5l-48 -224h270l50 237
q2 8 9 13t16 3l20 -4q9 -2 13.5 -9.5t2.5 -15.5l-47 -224h197q8 0 14 -6t6 -15v-20q0 -9 -6 -15t-15 -6h-210l-57 -271h184q9 0 15 -6t6 -15v-21q0 -8 -6 -14.5t-15 -6.5h-197l-51 -236q-2 -8 -9 -13t-15 -3l-21 4q-8 2 -13 9.5t-3 15.5zM606 372l58 271h-270l-58 -271h270z
" />
    <glyph glyph-name="vote-btn" unicode="&#xe018;" horiz-adv-x="923" 
d="M108 55q-46 0 -77 31t-31 77v485q0 46 31 76.5t77 30.5t76.5 -30.5t30.5 -76.5v-485q4 -30 -10 -54.5t-40.5 -39t-56.5 -14.5zM108 663q-6 0 -11 -5t-5 -10v-485q0 -11 10 -15t19.5 0t9.5 15v485q0 6 -6 10.5t-17 4.5zM462 55q-47 0 -77.5 31t-30.5 77v708
q0 46 30.5 76.5t77 30.5t77 -30.5t30.5 -76.5v-700q0 -52 -30.5 -84t-76.5 -32zM462 886q-6 0 -11 -4.5t-5 -10.5v-700q0 -11 9.5 -15.5t19.5 0t10 15.5v700q-8 7 -12 10q-6 5 -11 5zM815 55q-46 0 -76.5 31t-30.5 77v223q0 46 30.5 77t77 31t77 -31t30.5 -77v-223
q0 -46 -30.5 -77t-77.5 -31zM815 402q-5 0 -10 -5t-5 -11v-223q0 -11 9.5 -15t19 0t9.5 15v223q-7 8 -11 11q-6 5 -12 5z" />
  </font>
</defs>
</svg>
